<svg width="40" height="37" viewBox="0 0 40 37" fill="none" xmlns="http://www.w3.org/2000/svg">
<path d="M35.625 3.20508H33.75V1.33008C33.75 1.16432 33.6842 1.00535 33.5669 0.888136C33.4497 0.770926 33.2908 0.705078 33.125 0.705078H29.375C29.2092 0.705078 29.0503 0.770926 28.9331 0.888136C28.8158 1.00535 28.75 1.16432 28.75 1.33008V3.20508H11.25V1.33008C11.25 1.16432 11.1842 1.00535 11.0669 0.888136C10.9497 0.770926 10.7908 0.705078 10.625 0.705078H6.875C6.70924 0.705078 6.55027 0.770926 6.43306 0.888136C6.31585 1.00535 6.25 1.16432 6.25 1.33008V3.20508H4.375C3.38076 3.20613 2.42755 3.60156 1.72451 4.30459C1.02148 5.00763 0.626055 5.96084 0.625 6.95508V33.2051C0.626055 34.1993 1.02148 35.1525 1.72451 35.8556C2.42755 36.5586 3.38076 36.954 4.375 36.9551H35.625C36.6192 36.954 37.5725 36.5586 38.2755 35.8556C38.9785 35.1525 39.3739 34.1993 39.375 33.2051V6.95508C39.3739 5.96084 38.9785 5.00763 38.2755 4.30459C37.5725 3.60156 36.6192 3.20613 35.625 3.20508ZM30 1.95508H32.5V5.70508H30V1.95508ZM7.5 1.95508H10V5.70508H7.5V1.95508ZM38.125 33.2051C38.1243 33.8679 37.8606 34.5033 37.3919 34.972C36.9233 35.4407 36.2878 35.7043 35.625 35.7051H4.375C3.71215 35.7045 3.07662 35.4409 2.60792 34.9722C2.13921 34.5035 1.87562 33.8679 1.875 33.2051V8.83008H38.125V33.2051ZM38.125 7.58008H1.875V6.95508C1.87562 6.29223 2.13921 5.6567 2.60792 5.188C3.07662 4.71929 3.71215 4.4557 4.375 4.45508H6.25V6.33008C6.25 6.49584 6.31585 6.65481 6.43306 6.77202C6.55027 6.88923 6.70924 6.95508 6.875 6.95508H10.625C10.7908 6.95508 10.9497 6.88923 11.0669 6.77202C11.1842 6.65481 11.25 6.49584 11.25 6.33008V4.45508H28.75V6.33008C28.75 6.49584 28.8158 6.65481 28.9331 6.77202C29.0503 6.88923 29.2092 6.95508 29.375 6.95508H33.125C33.2908 6.95508 33.4497 6.88923 33.5669 6.77202C33.6842 6.65481 33.75 6.49584 33.75 6.33008V4.45508H35.625C36.2878 4.45582 36.9233 4.71945 37.3919 5.18813C37.8606 5.65681 38.1243 6.29227 38.125 6.95508V7.58008Z" fill="#E13D0F"/>
<path d="M4.375 17.5801H8.125C8.4564 17.5797 8.77411 17.4479 9.00845 17.2135C9.24278 16.9792 9.37461 16.6615 9.375 16.3301V12.5801C9.37461 12.2487 9.24278 11.931 9.00845 11.6966C8.77411 11.4623 8.4564 11.3305 8.125 11.3301H4.375C4.0436 11.3305 3.72589 11.4623 3.49155 11.6966C3.25722 11.931 3.12539 12.2487 3.125 12.5801V16.3301C3.12539 16.6615 3.25722 16.9792 3.49155 17.2135C3.72589 17.4479 4.0436 17.5797 4.375 17.5801ZM4.375 12.5801H8.125L8.12578 16.3301H4.375V12.5801Z" fill="#E13D0F"/>
<path d="M11.25 17.5801H15C15.3314 17.5797 15.6491 17.4479 15.8834 17.2135C16.1178 16.9792 16.2496 16.6615 16.25 16.3301V12.5801C16.2496 12.2487 16.1178 11.931 15.8834 11.6966C15.6491 11.4623 15.3314 11.3305 15 11.3301H11.25C10.9186 11.3305 10.6009 11.4623 10.3666 11.6966C10.1322 11.931 10.0004 12.2487 10 12.5801V16.3301C10.0004 16.6615 10.1322 16.9792 10.3666 17.2135C10.6009 17.4479 10.9186 17.5797 11.25 17.5801ZM11.25 12.5801H15L15.0008 16.3301H11.25V12.5801Z" fill="#E13D0F"/>
<path d="M18.125 17.5801H21.875C22.2064 17.5797 22.5241 17.4479 22.7585 17.2135C22.9928 16.9792 23.1246 16.6615 23.125 16.3301V12.5801C23.1246 12.2487 22.9928 11.931 22.7585 11.6966C22.5241 11.4623 22.2064 11.3305 21.875 11.3301H18.125C17.7936 11.3305 17.4759 11.4623 17.2416 11.6966C17.0072 11.931 16.8754 12.2487 16.875 12.5801V16.3301C16.8754 16.6615 17.0072 16.9792 17.2416 17.2135C17.4759 17.4479 17.7936 17.5797 18.125 17.5801ZM18.125 12.5801H21.875L21.8758 16.3301H18.125V12.5801Z" fill="#E13D0F"/>
<path d="M25 17.5801H28.75C29.0814 17.5797 29.3991 17.4479 29.6335 17.2135C29.8678 16.9792 29.9996 16.6615 30 16.3301V12.5801C29.9996 12.2487 29.8678 11.931 29.6335 11.6966C29.3991 11.4623 29.0814 11.3305 28.75 11.3301H25C24.6686 11.3305 24.3509 11.4623 24.1165 11.6966C23.8822 11.931 23.7504 12.2487 23.75 12.5801V16.3301C23.7504 16.6615 23.8822 16.9792 24.1165 17.2135C24.3509 17.4479 24.6686 17.5797 25 17.5801ZM25 12.5801H28.75L28.7508 16.3301H25V12.5801Z" fill="#E13D0F"/>
<path d="M31.875 17.5801H35.625C35.9564 17.5797 36.2741 17.4479 36.5085 17.2135C36.7428 16.9792 36.8746 16.6615 36.875 16.3301V12.5801C36.8746 12.2487 36.7428 11.931 36.5085 11.6966C36.2741 11.4623 35.9564 11.3305 35.625 11.3301H31.875C31.5436 11.3305 31.2259 11.4623 30.9915 11.6966C30.7572 11.931 30.6254 12.2487 30.625 12.5801V16.3301C30.6254 16.6615 30.7572 16.9792 30.9915 17.2135C31.2259 17.4479 31.5436 17.5797 31.875 17.5801ZM31.875 12.5801H35.625L35.6258 16.3301H31.875V12.5801Z" fill="#E13D0F"/>
<path d="M4.375 25.0801H8.125C8.4564 25.0797 8.77411 24.9479 9.00845 24.7135C9.24278 24.4792 9.37461 24.1615 9.375 23.8301V20.0801C9.37461 19.7487 9.24278 19.431 9.00845 19.1966C8.77411 18.9623 8.4564 18.8305 8.125 18.8301H4.375C4.0436 18.8305 3.72589 18.9623 3.49155 19.1966C3.25722 19.431 3.12539 19.7487 3.125 20.0801V23.8301C3.12539 24.1615 3.25722 24.4792 3.49155 24.7135C3.72589 24.9479 4.0436 25.0797 4.375 25.0801ZM4.375 20.0801H8.125L8.12578 23.8301H4.375V20.0801Z" fill="#E13D0F"/>
<path d="M11.25 25.0801H15C15.3314 25.0797 15.6491 24.9479 15.8834 24.7135C16.1178 24.4792 16.2496 24.1615 16.25 23.8301V20.0801C16.2496 19.7487 16.1178 19.431 15.8834 19.1966C15.6491 18.9623 15.3314 18.8305 15 18.8301H11.25C10.9186 18.8305 10.6009 18.9623 10.3666 19.1966C10.1322 19.431 10.0004 19.7487 10 20.0801V23.8301C10.0004 24.1615 10.1322 24.4792 10.3666 24.7135C10.6009 24.9479 10.9186 25.0797 11.25 25.0801ZM11.25 20.0801H15L15.0008 23.8301H11.25V20.0801Z" fill="#E13D0F"/>
<path d="M18.125 25.0801H21.875C22.2064 25.0797 22.5241 24.9479 22.7585 24.7135C22.9928 24.4792 23.1246 24.1615 23.125 23.8301V20.0801C23.1246 19.7487 22.9928 19.431 22.7585 19.1966C22.5241 18.9623 22.2064 18.8305 21.875 18.8301H18.125C17.7936 18.8305 17.4759 18.9623 17.2416 19.1966C17.0072 19.431 16.8754 19.7487 16.875 20.0801V23.8301C16.8754 24.1615 17.0072 24.4792 17.2416 24.7135C17.4759 24.9479 17.7936 25.0797 18.125 25.0801ZM18.125 20.0801H21.875L21.8758 23.8301H18.125V20.0801Z" fill="#E13D0F"/>
<path d="M4.375 32.5801H8.125C8.4564 32.5797 8.77411 32.4479 9.00845 32.2135C9.24278 31.9792 9.37461 31.6615 9.375 31.3301V27.5801C9.37461 27.2487 9.24278 26.931 9.00845 26.6966C8.77411 26.4623 8.4564 26.3305 8.125 26.3301H4.375C4.0436 26.3305 3.72589 26.4623 3.49155 26.6966C3.25722 26.931 3.12539 27.2487 3.125 27.5801V31.3301C3.12539 31.6615 3.25722 31.9792 3.49155 32.2135C3.72589 32.4479 4.0436 32.5797 4.375 32.5801ZM4.375 27.5801H8.125L8.12578 31.3301H4.375V27.5801Z" fill="#E13D0F"/>
<path d="M11.25 32.5801H15C15.3314 32.5797 15.6491 32.4479 15.8834 32.2135C16.1178 31.9792 16.2496 31.6615 16.25 31.3301V27.5801C16.2496 27.2487 16.1178 26.931 15.8834 26.6966C15.6491 26.4623 15.3314 26.3305 15 26.3301H11.25C10.9186 26.3305 10.6009 26.4623 10.3666 26.6966C10.1322 26.931 10.0004 27.2487 10 27.5801V31.3301C10.0004 31.6615 10.1322 31.9792 10.3666 32.2135C10.6009 32.4479 10.9186 32.5797 11.25 32.5801ZM11.25 27.5801H15L15.0008 31.3301H11.25V27.5801Z" fill="#E13D0F"/>
<path d="M18.125 32.5801H21.875C22.2064 32.5797 22.5241 32.4479 22.7585 32.2135C22.9928 31.9792 23.1246 31.6615 23.125 31.3301V27.5801C23.1246 27.2487 22.9928 26.931 22.7585 26.6966C22.5241 26.4623 22.2064 26.3305 21.875 26.3301H18.125C17.7936 26.3305 17.4759 26.4623 17.2416 26.6966C17.0072 26.931 16.8754 27.2487 16.875 27.5801V31.3301C16.8754 31.6615 17.0072 31.9792 17.2416 32.2135C17.4759 32.4479 17.7936 32.5797 18.125 32.5801ZM18.125 27.5801H21.875L21.8758 31.3301H18.125V27.5801Z" fill="#E13D0F"/>
<path d="M25 25.0801H28.75C29.0814 25.0797 29.3991 24.9479 29.6335 24.7135C29.8678 24.4792 29.9996 24.1615 30 23.8301V20.0801C29.9996 19.7487 29.8678 19.431 29.6335 19.1966C29.3991 18.9623 29.0814 18.8305 28.75 18.8301H25C24.6686 18.8305 24.3509 18.9623 24.1165 19.1966C23.8822 19.431 23.7504 19.7487 23.75 20.0801V23.8301C23.7504 24.1615 23.8822 24.4792 24.1165 24.7135C24.3509 24.9479 24.6686 25.0797 25 25.0801ZM25 20.0801H28.75L28.7508 23.8301H25V20.0801Z" fill="#E13D0F"/>
<path d="M31.875 25.0801H35.625C35.9564 25.0797 36.2741 24.9479 36.5085 24.7135C36.7428 24.4792 36.8746 24.1615 36.875 23.8301V20.0801C36.8746 19.7487 36.7428 19.431 36.5085 19.1966C36.2741 18.9623 35.9564 18.8305 35.625 18.8301H31.875C31.5436 18.8305 31.2259 18.9623 30.9915 19.1966C30.7572 19.431 30.6254 19.7487 30.625 20.0801V23.8301C30.6254 24.1615 30.7572 24.4792 30.9915 24.7135C31.2259 24.9479 31.5436 25.0797 31.875 25.0801ZM31.875 20.0801H35.625L35.6258 23.8301H31.875V20.0801Z" fill="#E13D0F"/>
</svg>
