<svg width="40" height="40" viewBox="0 0 40 40" fill="none" xmlns="http://www.w3.org/2000/svg">
<path d="M20 0C8.97231 0 0 8.97154 0 20C0 31.0285 8.97231 40 20 40C31.0277 40 40 31.0285 40 20C40 8.97154 31.0277 0 20 0ZM20 38.4615C9.82077 38.4615 1.53846 30.1792 1.53846 20C1.53846 9.82077 9.82077 1.53846 20 1.53846C30.1792 1.53846 38.4615 9.82077 38.4615 20C38.4615 30.1792 30.1792 38.4615 20 38.4615Z" fill="#00B436"/>
<path d="M29.4244 11.7969L17.6021 25.0969L10.4798 19.3992C10.149 19.1338 9.66366 19.1885 9.39905 19.5192C9.13366 19.8515 9.18751 20.3354 9.51905 20.6008L17.2114 26.7546C17.3529 26.8677 17.5229 26.9231 17.6921 26.9231C17.9044 26.9231 18.116 26.8354 18.2675 26.6646L30.5752 12.8185C30.8575 12.5015 30.829 12.0146 30.5114 11.7331C30.1929 11.45 29.7075 11.4785 29.4244 11.7969Z" fill="#00B436"/>
</svg>
