<svg width="40" height="29" viewBox="0 0 40 29" fill="none" xmlns="http://www.w3.org/2000/svg">
<path d="M38.8281 0.770508H1.17188C0.524687 0.770508 0 1.2952 0 1.94238V27.7175C0 28.3647 0.524687 28.8894 1.17188 28.8894H38.8281C39.4753 28.8894 40 28.3647 40 27.7175V1.94238C40 1.2952 39.4753 0.770508 38.8281 0.770508ZM37.6562 25.2949L24.4662 14.8509L37.6562 4.40684V25.2949ZM2.34375 4.40684L15.5338 14.8508L2.34375 25.295V4.40684ZM20 15.3978L4.4868 3.11426H35.5131L20 15.3978ZM17.4216 16.3456L19.2725 17.8112C19.4856 17.98 19.7428 18.0643 20 18.0643C20.2572 18.0643 20.5144 17.98 20.7275 17.8112L22.5784 16.3456L35.4604 26.5456H4.53969L17.4216 16.3456Z" fill="#E13D0F"/>
</svg>
