<svg width="40" height="40" viewBox="0 0 40 40" fill="none" xmlns="http://www.w3.org/2000/svg">
<path d="M20 0C8.97231 0 0 8.97154 0 20C0 31.0285 8.97231 40 20 40C31.0277 40 40 31.0285 40 20C40 8.97154 31.0277 0 20 0ZM20 38.4615C9.82077 38.4615 1.53846 30.1792 1.53846 20C1.53846 9.82077 9.82077 1.53846 20 1.53846C30.1792 1.53846 38.4615 9.82077 38.4615 20C38.4615 30.1792 30.1792 38.4615 20 38.4615Z" fill="#DF2A2A"/>
<path d="M27.467 12.5331C27.1663 12.2323 26.6801 12.2323 26.3793 12.5331L20.0001 18.9123L13.6209 12.5331C13.3201 12.2323 12.834 12.2323 12.5332 12.5331C12.2324 12.8338 12.2324 13.32 12.5332 13.6208L18.9124 20L12.5332 26.3792C12.2324 26.68 12.2324 27.1662 12.5332 27.4669C12.6832 27.6169 12.8801 27.6923 13.077 27.6923C13.274 27.6923 13.4709 27.6169 13.6209 27.4669L20.0001 21.0877L26.3793 27.4669C26.5293 27.6169 26.7263 27.6923 26.9232 27.6923C27.1201 27.6923 27.317 27.6169 27.467 27.4669C27.7678 27.1662 27.7678 26.68 27.467 26.3792L21.0878 20L27.467 13.6208C27.7678 13.32 27.7678 12.8338 27.467 12.5331Z" fill="#DF2A2A"/>
</svg>
