<svg width="30" height="38" viewBox="0 0 30 38" fill="none" xmlns="http://www.w3.org/2000/svg">
<path d="M20.4168 23.2853C20.1958 23.2852 19.9838 23.1974 19.8276 23.0411L13.6418 16.8553C12.301 15.5152 11.3877 13.8077 11.0175 11.9485C10.6473 10.0894 10.8368 8.16225 11.562 6.41082C12.2872 4.65938 13.5155 3.16236 15.0916 2.1091C16.6677 1.05584 18.5207 0.493652 20.4163 0.493652C22.312 0.493652 24.165 1.05584 25.7411 2.1091C27.3172 3.16236 28.5455 4.65938 29.2707 6.41082C29.9959 8.16225 30.1854 10.0894 29.8152 11.9485C29.445 13.8077 28.5317 15.5152 27.1909 16.8553L21.0059 23.0403C20.9286 23.1178 20.8368 23.1794 20.7357 23.2214C20.6346 23.2634 20.5262 23.2851 20.4168 23.2853ZM20.4168 2.16362C18.8515 2.16411 17.3214 2.62863 16.0201 3.49845C14.7187 4.36828 13.7044 5.60437 13.1053 7.0505C12.5063 8.49663 12.3494 10.0879 12.6544 11.6232C12.9595 13.1585 13.7128 14.5689 14.8193 15.6761L20.4168 21.2736L26.0134 15.6769C27.1201 14.5698 27.8737 13.1594 28.1789 11.6241C28.4842 10.0887 28.3274 8.49732 27.7284 7.05105C27.1294 5.60477 26.1151 4.36855 24.8137 3.49862C23.5123 2.62869 21.9822 2.16411 20.4168 2.16362Z" fill="#E13D0F"/>
<path d="M27.5 37.1636H2.5C1.83696 37.1636 1.20107 36.9002 0.732233 36.4313C0.263392 35.9625 0 35.3266 0 34.6636V9.66357C0 9.00053 0.263392 8.36465 0.732233 7.89581C1.20107 7.42697 1.83696 7.16357 2.5 7.16357H11.9167C12.1377 7.16357 12.3496 7.25137 12.5059 7.40765C12.6622 7.56393 12.75 7.77589 12.75 7.99691C12.75 8.21792 12.6622 8.42988 12.5059 8.58616C12.3496 8.74244 12.1377 8.83024 11.9167 8.83024H2.5C2.27899 8.83024 2.06702 8.91804 1.91074 9.07432C1.75446 9.2306 1.66667 9.44256 1.66667 9.66357V34.6636C1.66667 34.8846 1.75446 35.0965 1.91074 35.2528C2.06702 35.4091 2.27899 35.4969 2.5 35.4969H27.5C27.721 35.4969 27.933 35.4091 28.0893 35.2528C28.2455 35.0965 28.3333 34.8846 28.3333 34.6636V10.0802C28.3333 9.85923 28.4211 9.64727 28.5774 9.49099C28.7337 9.33471 28.9457 9.24691 29.1667 9.24691C29.3877 9.24691 29.5996 9.33471 29.7559 9.49099C29.9122 9.64727 30 9.85923 30 10.0802V34.6636C30 35.3266 29.7366 35.9625 29.2678 36.4313C28.7989 36.9002 28.163 37.1636 27.5 37.1636Z" fill="#E13D0F"/>
<path d="M20.4166 14.6637C19.5101 14.6637 18.6239 14.3949 17.8702 13.8913C17.1165 13.3877 16.529 12.6719 16.1821 11.8344C15.8352 10.9969 15.7445 10.0753 15.9213 9.18624C16.0982 8.29716 16.5347 7.48049 17.1757 6.8395C17.8167 6.19851 18.6333 5.76199 19.5224 5.58514C20.4115 5.40829 21.3331 5.49906 22.1706 5.84596C23.008 6.19286 23.7239 6.78032 24.2275 7.53404C24.7311 8.28777 24.9999 9.17391 24.9999 10.0804C24.9984 11.2955 24.515 12.4604 23.6558 13.3196C22.7966 14.1788 21.6317 14.6622 20.4166 14.6637ZM20.4166 7.16374C19.8397 7.16374 19.2758 7.3348 18.7962 7.65529C18.3165 7.97577 17.9427 8.43129 17.7219 8.96425C17.5012 9.4972 17.4434 10.0836 17.556 10.6494C17.6685 11.2152 17.9463 11.7349 18.3542 12.1428C18.7621 12.5507 19.2818 12.8285 19.8476 12.941C20.4134 13.0536 20.9998 12.9958 21.5327 12.7751C22.0657 12.5543 22.5212 12.1805 22.8417 11.7008C23.1622 11.2212 23.3333 10.6573 23.3333 10.0804C23.3333 9.30686 23.026 8.56499 22.479 8.01801C21.932 7.47103 21.1901 7.16374 20.4166 7.16374Z" fill="#E13D0F"/>
<path d="M10.0001 33.8302H6.66675C6.44573 33.8302 6.23377 33.7424 6.07749 33.5862C5.92121 33.4299 5.83341 33.2179 5.83341 32.9969C5.83341 32.7759 5.92121 32.5639 6.07749 32.4077C6.23377 32.2514 6.44573 32.1636 6.66675 32.1636H10.0001C10.4421 32.1636 10.866 31.988 11.1786 31.6754C11.4912 31.3629 11.6667 30.9389 11.6667 30.4969C11.6667 30.0549 11.4912 29.631 11.1786 29.3184C10.866 29.0058 10.4421 28.8302 10.0001 28.8302H7.50008C6.61603 28.8302 5.76818 28.4791 5.14306 27.8539C4.51794 27.2288 4.16675 26.381 4.16675 25.4969C4.16675 24.6129 4.51794 23.765 5.14306 23.1399C5.76818 22.5148 6.61603 22.1636 7.50008 22.1636H16.6667C16.8878 22.1636 17.0997 22.2514 17.256 22.4077C17.4123 22.5639 17.5001 22.7759 17.5001 22.9969C17.5001 23.2179 17.4123 23.4299 17.256 23.5862C17.0997 23.7424 16.8878 23.8302 16.6667 23.8302H7.50008C7.05805 23.8302 6.63413 24.0058 6.32157 24.3184C6.00901 24.631 5.83341 25.0549 5.83341 25.4969C5.83341 25.9389 6.00901 26.3629 6.32157 26.6754C6.63413 26.988 7.05805 27.1636 7.50008 27.1636H10.0001C10.8841 27.1636 11.732 27.5148 12.3571 28.1399C12.9822 28.765 13.3334 29.6129 13.3334 30.4969C13.3334 31.381 12.9822 32.2288 12.3571 32.8539C11.732 33.4791 10.8841 33.8302 10.0001 33.8302Z" fill="#E13D0F"/>
</svg>
