<svg width="40" height="41" viewBox="0 0 40 41" fill="none" xmlns="http://www.w3.org/2000/svg">
<path d="M9.8111 31.0191C15.3403 36.5483 22.3587 40.0243 29.5734 40.8065C29.7209 40.8225 29.8663 40.8304 30.0101 40.8304C30.9446 40.8304 31.7963 40.4941 32.4936 39.845L38.7941 33.9796C39.6449 33.1875 40.0801 32.078 39.9883 30.9354C39.8974 29.8036 39.2975 28.7882 38.3424 28.1497L32.5324 24.2658C31.0378 23.2666 29.1059 23.4567 27.8346 24.7281C27.5855 24.9772 27.3433 25.2423 27.087 25.523C25.9229 26.7976 25.0294 27.6796 24.1328 27.416C19.178 25.9599 14.8705 21.6525 13.4144 16.6975C13.2659 16.1923 13.3892 15.7089 13.7616 15.3364C13.9647 15.1334 14.2014 14.9151 14.452 14.6839C15.232 13.9646 16.1161 13.1491 16.6674 12.1787C17.6134 10.5136 17.1337 9.14933 16.5645 8.298L12.6806 2.48793C12.0421 1.53293 11.0268 0.933082 9.89485 0.842144C8.75235 0.750348 7.64274 1.18558 6.85071 2.03636L0.985243 8.33668C0.236259 9.14121 -0.0962412 10.151 0.0236806 11.2568C0.805946 18.4715 4.28188 25.4899 9.8111 31.0191ZM2.70071 9.93363L8.5661 3.63316C8.84118 3.33777 9.2122 3.17379 9.59782 3.17379C9.63415 3.17379 9.67056 3.17527 9.70704 3.17816C10.1266 3.21191 10.4906 3.42925 10.732 3.79027L14.6159 9.60035C15.2368 10.5291 14.6077 11.3517 12.8628 12.961C12.5943 13.2086 12.3407 13.4425 12.1042 13.679C11.1266 14.6565 10.7758 16.032 11.1656 17.3583C12.8374 23.0471 17.783 27.9927 23.4719 29.6646C23.8231 29.7678 24.1599 29.8143 24.4832 29.8143C26.3415 29.8143 27.748 28.2746 28.8175 27.1035C29.0554 26.843 29.2802 26.5969 29.4918 26.3853C29.9622 25.915 30.6769 25.8446 31.2298 26.2143L37.0398 30.0982C37.4009 30.3396 37.6183 30.7036 37.652 31.1232C37.686 31.5474 37.5202 31.9632 37.197 32.2641L30.8965 38.1295C30.5968 38.4086 30.2467 38.522 29.826 38.4764C15.928 36.9694 3.86079 24.9022 2.35376 11.0041C2.30813 10.5836 2.42165 10.2334 2.70071 9.93363Z" fill="#E13D0F"/>
</svg>
