<svg width="40" height="41" viewBox="0 0 40 41" fill="none" xmlns="http://www.w3.org/2000/svg">
<g clip-path="url(#clip0_220_1850)">
<path d="M20 9.42871C15.9053 9.42871 12.574 12.76 12.574 16.8547C12.574 20.9494 15.9053 24.2807 20 24.2807C24.0947 24.2807 27.426 20.9494 27.426 16.8547C27.426 12.76 24.0948 9.42871 20 9.42871ZM20 21.154C17.6294 21.154 15.7007 19.2254 15.7007 16.8547C15.7007 14.4841 17.6294 12.5554 20 12.5554C22.3706 12.5554 24.2993 14.4841 24.2993 16.8547C24.2993 19.2254 22.3706 21.154 20 21.154Z" fill="#E13D0F"/>
<path d="M20 0.830078C11.1639 0.830078 3.97534 8.01875 3.97534 16.8547V17.2977C3.97534 21.7664 6.53737 26.9739 11.5905 32.7752C15.2536 36.9809 18.8656 39.9134 19.0175 40.0362L20 40.8301L20.9825 40.0362C21.1344 39.9134 24.7464 36.9809 28.4094 32.7753C33.4625 26.9739 36.0246 21.7665 36.0246 17.2977V16.8548C36.0246 8.01875 28.836 0.830078 20 0.830078ZM32.8978 17.2977C32.8978 24.8497 23.1673 33.9915 20 36.7666C16.8317 33.9906 7.10206 24.8491 7.10206 17.2977V16.8548C7.10206 9.74289 12.8881 3.95687 20 3.95687C27.1118 3.95687 32.8978 9.74289 32.8978 16.8548V17.2977Z" fill="#E13D0F"/>
</g>
<defs>
<clipPath id="clip0_220_1850">
<rect width="40" height="40" fill="white" transform="translate(0 0.830078)"/>
</clipPath>
</defs>
</svg>
