<svg width="40" height="41" viewBox="0 0 40 41" fill="none" xmlns="http://www.w3.org/2000/svg">
<path d="M34.142 6.68789C30.3645 2.91039 25.342 0.830078 19.9998 0.830078C19.9995 0.830078 20 0.830078 19.9997 0.830078C14.658 0.830078 9.63516 2.91063 5.85781 6.68789C2.08039 10.4654 0 15.4878 0 20.8301C0.00015625 24.2308 0.865625 27.5732 2.50719 30.5295L0.0432812 39.3426C-0.070625 39.7502 0.0440625 40.1875 0.343281 40.4867C0.6425 40.7859 1.07969 40.9005 1.4875 40.7867L10.3009 38.3227C13.2568 39.9645 16.5991 40.83 19.9999 40.8301C25.3422 40.8301 30.3646 38.7497 34.1422 34.9722C37.9198 31.1947 40 26.1722 40 20.83C39.9998 15.4877 37.9194 10.4654 34.142 6.68789ZM19.9998 38.4863C16.8478 38.4863 13.7538 37.6447 11.0521 36.0527C10.8702 35.9454 10.6645 35.8904 10.4572 35.8904C10.3514 35.8904 10.2453 35.9047 10.1416 35.9337L2.86086 37.9691L4.89633 30.6886C4.98219 30.3816 4.93922 30.0529 4.77742 29.7782C3.18539 27.0761 2.34391 23.9819 2.34375 20.83C2.34375 16.1138 4.18031 11.68 7.51516 8.34516C10.85 5.01031 15.2838 3.17383 19.9998 3.17383C29.7353 3.17383 37.6559 11.0944 37.6562 20.83C37.6562 30.5657 29.7356 38.4863 19.9998 38.4863Z" fill="#00AB00"/>
<path d="M28.6332 22.3289C27.9169 21.6125 26.9617 21.2179 25.9435 21.2179C24.9254 21.2179 23.9703 21.6125 23.2541 22.3288L22.7108 22.872C22.5768 23.0059 22.3967 23.0797 22.2039 23.0797C22.0108 23.0797 21.8307 23.0059 21.6965 22.8717L17.9564 19.1317C17.8224 18.9978 17.7487 18.8176 17.7486 18.6246C17.7486 18.4315 17.8223 18.2515 17.9561 18.1177L18.4996 17.5744C19.9826 16.0913 19.9826 13.6782 18.4996 12.1951L17.4128 11.108C16.6964 10.3919 15.7412 9.99756 14.7232 9.99756C13.7051 9.99756 12.7499 10.3919 12.0335 11.1083L11.2232 11.9188C9.51003 13.632 8.88815 16.1833 9.47198 19.1028C10.0214 21.85 11.592 24.6311 13.8944 26.9337C16.7959 29.8349 20.4912 31.5671 23.7796 31.5673H23.7802C25.8521 31.5673 27.626 30.8889 28.9095 29.6054L29.7199 28.795C31.2029 27.3119 31.2029 24.8987 29.7199 23.4154L28.6332 22.3289ZM28.0627 27.1377L27.2523 27.9481C26.4178 28.7826 25.2173 29.2236 23.7803 29.2236H23.7799C21.0992 29.2234 18.0233 27.7479 15.5518 25.2765C13.5729 23.2975 12.2299 20.9417 11.7703 18.6432C11.3451 16.5169 11.7394 14.7174 12.8807 13.5761L13.6909 12.7657C13.9646 12.4921 14.3311 12.3414 14.7232 12.3414C15.1155 12.3414 15.4822 12.4921 15.7557 12.7655L16.8424 13.8524C17.4116 14.4217 17.4116 15.3479 16.8424 15.9171L16.299 16.4604C15.7224 17.037 15.4049 17.8058 15.4049 18.625C15.405 19.444 15.7227 20.2127 16.2992 20.7892L20.0393 24.5291C20.616 25.106 21.3848 25.4237 22.2039 25.4237C23.0229 25.4237 23.7915 25.1061 24.3681 24.5295L24.9114 23.9862C25.185 23.7126 25.5516 23.5619 25.9436 23.5619C26.3357 23.5619 26.7023 23.7126 26.976 23.9863L28.0627 25.0729C28.6319 25.6421 28.632 26.5684 28.0627 27.1377Z" fill="#00AB00"/>
</svg>
