<svg width="596" height="615" viewBox="0 0 596 615" fill="none" xmlns="http://www.w3.org/2000/svg">
<g opacity="0.1">
<path d="M583.684 249.971H539.964C533.78 222.156 523.121 195.604 508.427 171.412L539.219 139.701C540.344 138.544 541.237 137.171 541.845 135.658C542.454 134.146 542.768 132.524 542.768 130.887C542.768 129.25 542.454 127.629 541.845 126.117C541.237 124.605 540.344 123.231 539.219 122.074L477.823 59.0352C476.699 57.877 475.365 56.9573 473.897 56.3306C472.428 55.7027 470.855 55.3802 469.265 55.3802C467.675 55.3802 466.101 55.7027 464.633 56.3306C463.164 56.9573 461.83 57.877 460.707 59.0352L429.916 90.7458C406.497 75.6932 380.815 64.751 353.916 58.3642V13.3371C353.916 11.6771 353.594 10.0341 352.969 8.50356C352.343 6.97412 351.427 5.58774 350.275 4.42732C349.122 3.2669 347.756 2.35628 346.256 1.74768C344.757 1.13908 343.154 0.84502 341.543 0.88249H254.658C253.047 0.84502 251.444 1.13908 249.945 1.74768C248.445 2.35628 247.079 3.2669 245.926 4.42732C244.774 5.58774 243.858 6.97412 243.233 8.50356C242.608 10.0341 242.286 11.6771 242.287 13.3371V58.3642C215.279 64.7328 189.497 75.7103 166.007 90.8423L135.495 59.0352C134.371 57.877 133.037 56.9573 131.569 56.3306C130.1 55.7027 128.526 55.3802 126.937 55.3802C125.347 55.3802 123.773 55.7027 122.304 56.3306C120.836 56.9573 119.502 57.877 118.378 59.0352L56.8894 122.361C55.7649 123.518 54.8719 124.892 54.2633 126.404C53.6536 127.917 53.3405 129.538 53.3405 131.175C53.3405 132.812 53.6536 134.433 54.2633 135.945C54.8719 137.458 55.7649 138.832 56.8894 139.989L87.6802 171.699C73.0489 195.809 62.4229 222.262 56.2379 249.971H12.5169C10.905 249.97 9.30969 250.301 7.82352 250.945C6.33844 251.589 4.99227 252.532 3.86551 253.719C2.73874 254.907 1.85453 256.313 1.26359 257.858C0.672648 259.402 0.387114 261.053 0.423497 262.712V352.192C0.387114 353.851 0.672648 355.502 1.26359 357.046C1.85453 358.59 2.73874 359.997 3.86551 361.185C4.99227 362.371 6.33844 363.315 7.82352 363.959C9.30969 364.603 10.905 364.934 12.5169 364.934H56.2379C62.4218 392.748 73.0808 419.3 87.7739 443.492L56.8894 474.915C55.7649 476.072 54.8719 477.446 54.2633 478.958C53.6536 480.471 53.3405 482.092 53.3405 483.73C53.3405 485.367 53.6536 486.987 54.2633 488.5C54.8719 490.012 55.7649 491.386 56.8894 492.543L118.378 555.869C119.502 557.027 120.836 557.947 122.304 558.573C123.773 559.201 125.347 559.524 126.937 559.524C128.526 559.524 130.1 559.201 131.569 558.573C133.037 557.947 134.371 557.027 135.495 555.869L166.286 524.158C189.696 539.226 215.381 550.17 242.287 556.54V601.567C242.287 604.87 243.56 608.038 245.828 610.373C248.096 612.709 251.172 614.021 254.379 614.021H341.264C342.898 614.099 344.531 613.834 346.064 613.244C347.596 612.652 348.995 611.747 350.178 610.582C351.361 609.418 352.302 608.019 352.944 606.47C353.587 604.92 353.917 603.252 353.916 601.567V556.54C380.923 550.171 406.705 539.194 430.195 524.062L460.985 555.773C462.103 556.937 463.437 557.859 464.907 558.485C466.377 559.11 467.953 559.426 469.544 559.413C471.135 559.437 472.715 559.126 474.187 558.501C475.659 557.874 476.991 556.946 478.102 555.773L539.591 492.447C540.716 491.29 541.608 489.917 542.217 488.404C542.827 486.892 543.14 485.27 543.14 483.633C543.14 481.996 542.827 480.374 542.217 478.862C541.608 477.349 540.716 475.976 539.591 474.82L508.8 443.109C523.324 419.009 533.856 392.591 539.964 364.934H583.684C586.892 364.934 589.968 363.622 592.236 361.286C594.503 358.95 595.778 355.782 595.778 352.479V262.712C595.814 261.053 595.53 259.402 594.938 257.858C594.347 256.313 593.463 254.907 592.336 253.719C591.209 252.532 589.863 251.589 588.378 250.945C586.892 250.301 585.296 249.97 583.684 249.971ZM577.731 345.774H535.218C532.489 345.762 529.835 346.702 527.69 348.442C525.545 350.181 524.034 352.618 523.405 355.353C517.589 384.281 506.51 411.813 490.753 436.499C489.22 438.886 488.538 441.75 488.827 444.598C489.115 447.447 490.355 450.104 492.335 452.114L522.382 483.059L469.265 538.433L439.218 507.489C437.256 505.465 434.679 504.199 431.917 503.903C429.156 503.607 426.38 504.297 424.055 505.859C400.086 522.087 373.352 533.497 345.264 539.486C342.607 540.135 340.242 541.69 338.553 543.9C336.864 546.108 335.95 548.841 335.961 551.653V595.435H260.892V551.653C260.902 548.841 259.989 546.108 258.3 543.9C256.611 541.69 254.246 540.135 251.589 539.486C223.5 533.497 196.767 522.087 172.797 505.859C170.473 504.297 167.697 503.607 164.935 503.903C162.174 504.199 159.597 505.465 157.634 507.489L126.937 538.433L73.8195 483.73L103.866 452.784C105.831 450.764 107.06 448.11 107.348 445.265C107.636 442.422 106.965 439.563 105.448 437.169C89.6912 412.484 78.6121 384.951 72.7964 356.024C72.1669 353.288 70.6564 350.852 68.5109 349.113C66.3666 347.373 63.7129 346.432 60.9831 346.443H18.4704V269.131H60.9831C63.7129 269.142 66.3666 268.201 68.5109 266.462C70.6564 264.722 72.1669 262.287 72.7964 259.551C78.6121 230.623 89.6912 203.091 105.448 178.405C106.965 176.012 107.636 173.153 107.348 170.308C107.06 167.465 105.831 164.811 103.866 162.789L73.8195 131.175L126.937 76.471L156.984 107.415C158.954 109.423 161.531 110.677 164.287 110.974C167.043 111.27 169.816 110.589 172.147 109.045C196.14 92.7998 222.908 81.3886 251.031 75.4173C253.679 74.7531 256.035 73.1941 257.721 70.988C259.408 68.7818 260.327 66.0579 260.333 63.2511V19.4685H335.311V63.2511C335.316 66.0579 336.236 68.7818 337.922 70.988C339.608 73.1941 341.964 74.7531 344.613 75.4173C372.724 81.4249 399.487 92.8327 423.497 109.045C425.796 110.635 428.564 111.344 431.319 111.046C434.073 110.748 436.639 109.464 438.567 107.415L469.265 76.471L522.382 131.175L492.335 162.12C490.355 164.13 489.115 166.787 488.827 169.635C488.538 172.484 489.22 175.346 490.753 177.735C506.51 202.42 517.589 229.953 523.405 258.879C524.034 261.616 525.545 264.051 527.69 265.791C529.835 267.53 532.489 268.472 535.218 268.46H577.731V345.774Z" fill="white"/>
<path d="M298.108 110.869C260.355 110.869 223.449 122.399 192.058 144C160.668 165.602 136.201 196.304 121.754 232.226C107.305 268.148 103.526 307.675 110.891 345.809C118.257 383.944 136.437 418.972 163.132 446.465C189.828 473.958 223.84 492.681 260.869 500.267C297.897 507.852 336.277 503.96 371.157 489.08C406.037 474.201 435.849 449.003 456.824 416.675C477.798 384.347 488.993 346.338 488.993 307.457C488.92 255.342 468.785 205.383 433.003 168.532C397.221 131.682 348.711 110.945 298.108 110.869ZM267.41 482.393V391.668C267.38 389.941 266.898 388.255 266.013 386.788C265.129 385.321 263.877 384.126 262.387 383.333C249.737 376.796 238.974 366.954 231.176 354.79C223.378 342.625 218.818 328.566 217.952 314.017C217.085 299.468 219.943 284.94 226.239 271.886C232.536 258.832 242.049 247.708 253.828 239.628V292.799C254.06 297.157 255.869 301.269 258.901 304.32C261.933 307.371 265.965 309.14 270.202 309.277H326.015C328.217 309.303 330.402 308.874 332.439 308.016C334.477 307.157 336.327 305.885 337.879 304.278C339.431 302.67 340.655 300.758 341.478 298.655C342.3 296.552 342.705 294.299 342.667 292.033V239.15C354.609 247.182 364.273 258.325 370.681 271.449C377.089 284.571 380.011 299.207 379.151 313.869C378.291 328.531 373.681 342.698 365.786 354.932C357.892 367.165 346.995 377.03 334.202 383.525C332.713 384.318 331.46 385.512 330.576 386.98C329.691 388.447 329.209 390.133 329.178 391.859V482.488C319.081 484.402 308.84 485.395 298.574 485.459C288.115 485.445 277.682 484.419 267.41 482.393ZM346.76 478.082V397.415C362.761 388.048 375.901 374.263 384.701 357.615C393.503 340.967 397.612 322.118 396.568 303.193C395.523 284.269 389.366 266.021 378.79 250.507C368.215 234.993 353.642 222.83 336.714 215.391C335.344 214.816 333.863 214.587 332.391 214.72C330.919 214.854 329.499 215.345 328.249 216.157C327.012 217.017 325.994 218.172 325.282 219.523C324.57 220.873 324.183 222.381 324.155 223.917V290.978H271.875V223.917C271.808 222.408 271.395 220.937 270.669 219.624C269.944 218.311 268.928 217.194 267.704 216.363C266.479 215.531 265.081 215.009 263.623 214.84C262.167 214.672 260.69 214.861 259.318 215.391C242.394 222.84 227.829 235.011 217.262 250.53C206.695 266.049 200.549 284.3 199.514 303.223C198.478 322.147 202.597 340.993 211.405 357.635C220.213 374.278 233.36 388.056 249.363 397.415V478.274C209.445 466.207 175.087 439.727 152.592 403.685C130.096 367.644 120.971 324.459 126.889 282.049C132.806 239.639 153.371 200.849 184.812 172.79C216.252 144.731 256.459 129.286 298.062 129.286C339.664 129.286 379.872 144.731 411.313 172.79C442.753 200.849 463.317 239.639 469.235 282.049C475.153 324.459 466.027 367.644 443.531 403.685C421.036 439.727 386.678 466.207 346.76 478.274V478.082Z" fill="white"/>
</g>
</svg>
